<?xml version="1.0" encoding="UTF-8" standalone="no"?>
<svg
   xmlns:dc="http://purl.org/dc/elements/1.1/"
   xmlns:cc="http://creativecommons.org/ns#"
   xmlns:rdf="http://www.w3.org/1999/02/22-rdf-syntax-ns#"
   xmlns:svg="http://www.w3.org/2000/svg"
   xmlns="http://www.w3.org/2000/svg"
   height="2424.5144"
   width="2399.3171"
   xml:space="preserve"
   enable-background="new 0 0 3883.356 2428.236"
   viewBox="0 0 2399.3172 2424.5143"
   y="0px"
   x="0px"
   id="Layer_1"
   version="1.1"><metadata
   id="metadata5173"><rdf:RDF><cc:Work
       rdf:about=""><dc:format>image/svg+xml</dc:format><dc:type
         rdf:resource="http://purl.org/dc/dcmitype/StillImage" /><dc:title></dc:title></cc:Work></rdf:RDF></metadata><defs
   id="defs5171" />









































































































<g
   transform="matrix(1.2712534,0,0,1.3283889,-1135.256,-812.61401)"
   id="g5725"><path
     style="fill:#712771;fill-opacity:1;stroke:none;stroke-width:1px;stroke-linecap:butt;stroke-linejoin:miter;stroke-opacity:1"
     d="m 2247.6015,1279.462 -437.0336,62.4334 -611.8471,149.8401 -212.27347,424.5469 199.78677,274.7069 786.6606,-524.4404 z"
     id="path5718" /><path
     style="fill:#49a849;fill-opacity:1;stroke:none;stroke-width:1px;stroke-linecap:butt;stroke-linejoin:miter;stroke-opacity:1"
     d="m 2534.795,655.12822 v 174.81345 l -237.2468,12.48668 -99.8934,124.86675 124.8668,437.0336 362.1135,-199.7868 62.4334,-124.8667 -112.3801,-199.78683 24.9734,-137.35342 v -74.92006 z"
     id="path5720" /><path
     d="m 2620.4045,611.729 c 108.1649,0 101.6063,83.39643 101.6063,130.36909 0,34.94483 -19.294,78.40992 -57.882,130.36909 130.5407,109.54615 115.7508,176.72662 115.7508,246.68172 0,70.7404 -48.4523,128.6676 -145.3305,173.8211 -382.4162,762.6218 -746.8158,1143.9131 -1093.2121,1143.9131 h -73.304 c -349.8337,-56.2389 -487.28392,-165.6118 -574.69065,-453.0378 -14.4524,-397.1906 462.64545,-629.9791 604.27035,-633.3538 332.6732,-86.9171 561.172,-159.3196 685.5096,-217.2861 -23.8771,-74.2349 -108.4019,-261.17013 218.6477,-333.58576 h 101.6063 V 669.25055 c 20.6768,-51.42256 66.2449,-57.52155 117.0282,-57.52155 z M 1118.1993,1944.8154 c 0,96.3012 34.2946,144.4256 102.8969,144.4256 15.4352,0 39.4309,-24.2782 72.0265,-72.8476 -32.0425,-59.3146 -28.2891,-107.7793 -28.2891,-158.482 0,-181.4906 194.2043,-307.1742 582.6128,-377.0508 126.0365,-54.5244 189.0548,-88.1866 189.0548,-100.9735 v -29.3956 c -115.7508,38.3477 -339.1134,91.6026 -670.0745,159.7647 -157.3678,111.8103 -248.2274,244.2211 -248.2274,434.5592 z m 1122.7918,-912.5836 c 14.566,38.3477 29.1452,57.5216 43.7243,57.5216 32.5825,0 66.4425,-14.4753 101.6063,-43.452 19.7154,60.5186 44.1588,94.1547 73.304,100.9735 l 73.304,-43.452 h 28.289 c 5.9924,57.9534 20.5847,86.9171 43.7243,86.9171 86.6979,0 87.4617,-58.8304 87.4617,-115.03 0,-94.58665 -77.6106,-162.3168 -232.7922,-203.21665 -145.752,25.5346 -218.6214,78.80256 -218.6214,159.73845 z m 349.8205,-333.58571 v 116.31263 c 15.4352,0 34.7292,-34.06794 57.882,-102.25617 l -28.2891,-14.05646 z"
     id="path5044"
     style="stroke-width:13.12889194" /></g>





























































</svg>