<?xml version="1.0"?>
<svg xmlns:rdf="http://www.w3.org/1999/02/22-rdf-syntax-ns#" xmlns="http://www.w3.org/2000/svg" xmlns:cc="http://web.resource.org/cc/" xmlns:xlink="http://www.w3.org/1999/xlink" xmlns:dc="http://purl.org/dc/elements/1.1/" xmlns:svg="http://www.w3.org/2000/svg" id="svg19840" viewBox="0 0 356.2 405.77" version="1.0">
  <defs id="defs19842">
    <linearGradient id="linearGradient13972" y2="405.26" gradientUnits="userSpaceOnUse" x2="434.63" y1="495.88" x1="411.19">
      <stop id="stop13968" stop-color="#b1c222" offset="0"/>
      <stop id="stop13974" stop-color="#c5db13" offset="1"/>
    </linearGradient>
    <linearGradient id="linearGradient3270" y2="529.91" gradientUnits="userSpaceOnUse" x2="367.12" gradientTransform="matrix(.78622 -.61795 .61795 .78622 -241.63 350.33)" y1="554.28" x1="267.09">
      <stop id="stop8747" stop-color="#901011" offset="0"/>
      <stop id="stop8755" stop-color="#d51315" offset=".5"/>
      <stop id="stop8753" stop-color="#ef1b1c" offset="1"/>
    </linearGradient>
  </defs>
  <g id="layer1" transform="translate(-222.13 -99.229)">
    <g id="g19816" transform="matrix(1.775 0 0 1.775 -271.85 -612.7)">
      <path id="path4105" d="m287.88 521.77l19.83-44.36s7.14-22.47 31.5-37 5.49-2.73 13.33-2.85 6.6-5.98 21.5-7.04c14.91-1.06 32.84 3.76 32.84 3.76s7.01 2.44 10.87 5.13 12.4 10.92 12.16 21.13l3.64 3.82s10.84-1.37 18.23 9.04 9.57 18.23 7.62 35.98 15.44 9.33 14.68 24.55-0.5 8.67-6.76 18.51c0 0-12.9 23.51-23.8 35.68-10.9 12.16-28.7 24.13-41.14 29.19-12.44 5.05-30.93 6.99-49.71 5.12 0 0-16.02 0.22-29.86-8.24s-5.27-15.86-16.36-21.1c-11.08-5.23-18.51-11.53-22.18-27.08-3.68-15.55 0.96-34.25 3.61-44.24z" fill-rule="evenodd" stroke="#850000" stroke-width="2" fill="url(#linearGradient3270)"/>
      <path id="path4107" d="m419.24 435.65s-13.49-8.29-9.31-15.85c4.18-7.55 10-16.17 22.74-14.27s13.78 21.54 13.78 21.54 0.08 3.54-1.69 11c-1.78 7.47-11.03 39.47-11.03 39.47s3.53 7.35 1.64 11.53 9.03 0.33 7.4 3.4c-1.63 3.08-0.08 5.91-0.08 5.91l-1.04 2.4-22.93-2-3.31 0.36-4.01-2.24s-6.7-11.38-18.08-17.27c-11.38-5.9-16.47-7.52-16.47-7.52s-2.82-2.73 1.45-4.73c4.27-2.01 4.04-1.16 8.44-5.29 4.39-4.13 4.03-0.02 6.19-4.42 2.17-4.4 4 0.23 6.39 2.4 2.38 2.18 10.48 7.05 13.26-1.43s6.91-22.96 6.66-22.99z" fill-rule="evenodd" stroke="#346b00" stroke-width="2" fill="url(#linearGradient13972)"/>
      <path id="path4109" d="m341.88 448.78s-13.18 10.13-11.55 19.65c1.63 9.51 2.64 11.64 4.4 11.6 1.77-0.04 4.29-1.12 1-7.31-3.28-6.18 3.78-15.78 7.12-18.41 1.67-1.31 8.13-5.46 7.01-7.32-1.15-1.92-5.15-0.57-7.98 1.79z" fill-opacity=".37076" fill="#ff3f3f" fill-rule="evenodd"/>
      <path id="path4111" d="m369.97 488.53l6.48 1.66s7.83 0.81 2.65-6.92-16.05 1.6-13.47 3.17 4.4 2.16 4.34 2.09z" fill-opacity=".37076" fill="#ff3f3f" fill-rule="evenodd"/>
      <path id="path4113" d="m403.09 516.8s10.91 5.15 19.16 3.49c8.26-1.65 4.84-0.99 4.84-0.99s4.3-0.68 4.06-2.85c-0.25-2.17-1.47-2.44-8.1-2.29s-15.26-0.82-21.14-3.73c-5.89-2.91-5.95 0.73-5.95 0.73s-1.9 3.3 7.13 5.64z" fill-opacity=".37076" fill="#ff3f3f" fill-rule="evenodd"/>
      <path id="path4115" d="m318.82 611.26c-4.59-3.7 0.67-2.44 0.72-2.37 0 0 4.52 1.17 14.52-8.71 9.99-9.88 15.83-5.03 23.29-11.56 7.45-6.54 10.95-14.68 19.96-19.51 9.02-4.84 10.96-12.67 20.62-18.68 9.66-6.02 40.97-19.39 44.76-25.74 3.78-6.34 20.83-12.1 20.83-12.1s8.94 7.93 10.11 16-1.51 15.24-3.73 19.01c-12.57 23.11-13.07 24.17-25.66 30.44-10.59 5.27-26.43 11.07-38.25 16.76-11.83 5.69-15.37 4.98-24.85 5.11 0 0-12.24 0.54-2.8 3.69 9.44 3.14 6.76 3.45-0.83 3.8-7.6 0.35-26.13 0.52-26.13 0.52s-7.31 0.13-4.08 2.53c3.24 2.41 4 4.51-12.74 5.53 0 0-4.47 0.36-5.43 0.1-3.97-1.06-4.76-0.19-10.31-4.82z" fill-opacity=".37076" fill="#ff3f3f" fill-rule="evenodd"/>
      <path id="path5101" d="m325.54 589.34s22.05-22.28 29.59-31.58c7.53-9.29 10.06-24.1 5.89-27.12-4.17-3.01-10.04 1.82-10.04 1.82s-5.58 4.62-6.58 7.65c-0.99 3.03-5.07 5.56-11.24 7.72-6.18 2.15-22.04 13.72-16.89 14.84s14.89 1.79 16.44 1.47 5.7 4.96-15.56 4.81-10.82-3.19-14.02-6.97c-3.19-3.78-4.06-6.03-8.68-1.04-4.63 4.98-1.12 7.17-4.37 7.03-3.26-0.14-5.3 0.12-5.07 1.28 0.24 1.16 3.97 11.05 9.89 16.29 5.91 5.24 12.3 7.64 12.3 7.64s4.7 2.83 5.55 6.21c0.85 3.37 13.28-9.99 12.79-10.05z" fill-opacity=".37076" fill="#ff3f3f" fill-rule="evenodd"/>
      <path id="path7854" style="color:#000000" d="m341.68 439.1s24.9-8.76 40.24 10.35 4.27 5.22 5.96 8.99l-6.49 5.1s-2.71-27.12-39.71-24.44z" fill-rule="evenodd" fill-opacity=".37076" fill="#ff3f3f"/>
      <path id="path7856" style="color:#000000" d="m364.89 432.63s13.24 3.9 17.03 7.91-4.23-7.8-10.88-10.2-4.78 1.2-6.15 2.29z" fill-rule="evenodd" fill-opacity=".37076" fill="#ff3f3f"/>
      <path id="path7858" style="color:#000000" d="m400.76 437.82s6.01 0.36 8.18 3.11c2.16 2.75-0.28 5.31-2.5 4.51s-1.18-3.52-4.93-3.44-4.5-4.1-0.75-4.18z" fill-rule="evenodd" fill-opacity=".37076" fill="#ff3f3f"/>
      <path id="path8837" d="m380.06 468.06c-2.08 0.16-6.23 2.53-2.25 4.28 5.8 2.92 8.93 4.44 14.09 7.05 9.94 4.86 17.28 14.97 20.3 19.54 4.02 0.55 8.19 0.47 12.81 0.7 7 0.68 11.57 0.89 17.27 0.32-0.24-3.05-1.65-2.64-0.66-8.04-1.46-1.22-5.34-1.85-7.76-1.71-0.08 2.35 2.14 7.52-2.14 6.05-2.76-4.22-8.53-2.2-12.75-2.97-1.43-3.28 1.02-7.38-0.72-10.34-2.86 0.13-4.7 6.73-8.69 3.9-2.77-3.76-5.12-9-10.28-9.81-3.59-2.76 1.4-5.44 2.5-7.94-6.68 3.4-14.68-1.71-21.72-1.03z" fill="#9db817" fill-rule="evenodd"/>
      <path id="path10655" d="m416.62 412.7s10.3-3.12 9.04 15.41c-1.27 18.53-1.22 23.71-6.42 37.69 0 0 11.79-23.67 17.16-58.02 0 0-11.89-6.14-19.78 4.92z" style="color:#000000" fill="#abbc15" fill-rule="evenodd"/>
      <path id="path10657" d="m346.21 480.9s23.69-8.23 36.94-4.26-4.65-3.76-9.43-3.83-14.4-0.41-27.51 8.09z" fill-opacity=".37288" fill="#690000" fill-rule="evenodd"/>
      <path id="path6201" style="color:#000000" d="m459.39 509s-9.81-8.22-17.58-7.29 0.82-4.72 0.57-6.13c7.11 0.93 13.8 7.42 17.01 13.42z" fill-rule="evenodd" fill-opacity=".37288" fill="#690000"/>
      <path id="path6204" style="color:#000000" d="m415.04 500.1s-3.63 10.04-5.11 12.43l-0.03-0.6 1.82-13.83 3.32 2z" fill-rule="evenodd" fill-opacity=".37288" fill="#690000"/>
      <path id="path6206" style="color:#000000" d="m408.4 518.97s-65.14 67.41-95.43 81.76l-0.05 0.3c39.34-11.93 95.48-82.06 95.48-82.06z" fill-rule="evenodd" fill-opacity=".37288" fill="#690000"/>
      <path id="path6208" style="color:#000000" d="m346.72 480.47s-39.63 21.79-61.04 50.55l61.04-50.55z" fill-rule="evenodd" fill-opacity=".37288" fill="#690000"/>
      <path id="path9117" d="m433.39 406.68s0.38 10.9-5.04 29.18c-5.41 18.28-0.47 13.63-9.03 25.85 0 0 13.76-13.16 22.09-46.96 0 0-1.9-6.53-8.02-8.07z" style="color:#000000" fill="#a9c119" fill-rule="evenodd"/>
      <path id="path11057" d="m391.8 460.46s8.65 10.17 14.39 9.26 17.4-13.83 18.2-15.77c0.14-0.07-2.83 19.4-6.57 34.1 0 0-3.56-4.28 1.11-23.86 0 0-11.12 17.69-27.13-3.73z" style="color:#000000" fill="#9db817" fill-rule="evenodd"/>
      <path id="path13982" d="m418.89 437.33l2.28-10.09" stroke="#346b00" stroke-linecap="round" stroke-width="2" fill="none"/>
    </g>
  </g>
  <metadata>
    <rdf:RDF>
      <cc:Work>
        <dc:format>image/svg+xml</dc:format>
        <dc:type rdf:resource="http://purl.org/dc/dcmitype/StillImage"/>
        <cc:license rdf:resource="http://creativecommons.org/licenses/publicdomain/"/>
        <dc:publisher>
          <cc:Agent rdf:about="http://openclipart.org/">
            <dc:title>Openclipart</dc:title>
          </cc:Agent>
        </dc:publisher>
        <dc:title>red pepper</dc:title>
        <dc:date>2007-07-19T11:13:15</dc:date>
        <dc:description>clip art, clipart, food, food, image, media, png, public domain, svg, vegetable, vegetable, </dc:description>
        <dc:source>http://openclipart.org/detail/4487/red-pepper-by-flomar</dc:source>
        <dc:creator>
          <cc:Agent>
            <dc:title>flomar</dc:title>
          </cc:Agent>
        </dc:creator>
        <dc:subject>
          <rdf:Bag>
            <rdf:li>clip art</rdf:li>
            <rdf:li>clipart</rdf:li>
            <rdf:li>food</rdf:li>
            <rdf:li>image</rdf:li>
            <rdf:li>media</rdf:li>
            <rdf:li>png</rdf:li>
            <rdf:li>public domain</rdf:li>
            <rdf:li>svg</rdf:li>
            <rdf:li>vegetable</rdf:li>
          </rdf:Bag>
        </dc:subject>
      </cc:Work>
      <cc:License rdf:about="http://creativecommons.org/licenses/publicdomain/">
        <cc:permits rdf:resource="http://creativecommons.org/ns#Reproduction"/>
        <cc:permits rdf:resource="http://creativecommons.org/ns#Distribution"/>
        <cc:permits rdf:resource="http://creativecommons.org/ns#DerivativeWorks"/>
      </cc:License>
    </rdf:RDF>
  </metadata>
</svg>
